<svg width="24" height="24" viewBox="0 0 24 24" fill="none" xmlns="http://www.w3.org/2000/svg">
<g clip-path="url(#clip0_11491_3106)">
<path d="M5.51422 9.45842C5.51376 9.22477 5.59514 8.99834 5.74422 8.81842C5.82817 8.71717 5.93127 8.63346 6.04762 8.57211C6.16396 8.51076 6.29127 8.47296 6.42225 8.46089C6.55322 8.44881 6.6853 8.46269 6.8109 8.50174C6.9365 8.54078 7.05317 8.60422 7.15422 8.68842L12.5142 13.1684L17.8842 8.84843C17.9865 8.76536 18.1042 8.70333 18.2305 8.6659C18.3569 8.62846 18.4894 8.61637 18.6204 8.63031C18.7514 8.64425 18.8784 8.68395 18.994 8.74712C19.1097 8.81029 19.2117 8.8957 19.2942 8.99843C19.3853 9.10189 19.4539 9.22306 19.4959 9.35432C19.5379 9.48558 19.5523 9.62411 19.5382 9.7612C19.5241 9.89829 19.4819 10.031 19.4141 10.151C19.3463 10.271 19.2544 10.3756 19.1442 10.4584L13.1442 15.2884C12.9653 15.4355 12.7408 15.5159 12.5092 15.5159C12.2776 15.5159 12.0532 15.4355 11.8742 15.2884L5.87422 10.2884C5.7532 10.1881 5.65754 10.0607 5.59499 9.91646C5.53244 9.77225 5.50477 9.61533 5.51422 9.45842Z" fill="white"/>
</g>
<defs>
<clipPath id="clip0_11491_3106">
<rect width="24" height="24" fill="white"/>
</clipPath>
</defs>
</svg>
