<svg width="16" height="19" viewBox="0 0 16 19" fill="none" xmlns="http://www.w3.org/2000/svg">
<path d="M2.09008 18.06C1.82486 18.06 1.57051 17.9546 1.38297 17.7671C1.19544 17.5796 1.09008 17.3252 1.09008 17.06L0.94008 2.4C0.928038 2.10234 0.974963 1.80525 1.07815 1.52579C1.18135 1.24633 1.33877 0.990038 1.54137 0.77164C1.74396 0.553243 1.98774 0.377054 2.25868 0.253208C2.52961 0.129361 2.82236 0.0603016 3.12008 0.05L12.7101 0C13.0082 0.00520682 13.3024 0.0690924 13.5758 0.188008C13.8492 0.306923 14.0965 0.478538 14.3036 0.69305C14.5107 0.907563 14.6735 1.16077 14.7827 1.43821C14.8919 1.71565 14.9454 2.01189 14.9401 2.31L15.0801 16.97C15.0818 17.1452 15.0374 17.3178 14.9514 17.4705C14.8654 17.6232 14.7408 17.7506 14.5901 17.84C14.4381 17.9278 14.2656 17.974 14.0901 17.974C13.9145 17.974 13.7421 17.9278 13.5901 17.84L7.89008 14.68L2.60008 17.91C2.44343 17.9975 2.26916 18.0488 2.09008 18.06ZM7.85008 12.51C8.02384 12.5103 8.1951 12.5514 8.35008 12.63L13.0601 15.24L12.9401 2.29C12.9401 2.09 12.8101 1.95 12.7301 1.96L3.13008 2.05C3.05008 2.05 2.94008 2.18 2.94008 2.38L3.06008 15.28L7.34008 12.65C7.49552 12.561 7.67098 12.5128 7.85008 12.51Z" fill="white"/>
</svg>
